<svg width="32" height="32" xmlns="http://www.w3.org/2000/svg">

 <g>
  <title>background</title>
  <rect fill="none" id="canvas_background" height="402" width="582" y="-1" x="-1"/>
 </g>
 <g>
  <title>Layer 1</title>
  <path fill="#e7bf55" id="svg_2" d="m27.3,12.1l2.4,-2.4c0.2,-0.2 0.3,-0.6 0.3,-0.9c-0.1,-0.3 -0.3,-0.6 -0.6,-0.7l-10,-4c-0.4,-0.2 -0.8,-0.1 -1.1,0.2l-2.3,2.3l-2.3,-2.3c-0.3,-0.3 -0.7,-0.4 -1.1,-0.2l-10,4c-0.3,0.1 -0.5,0.4 -0.6,0.7c0,0.3 0.1,0.7 0.3,0.9l2.4,2.4l-2.5,3.3c-0.2,0.2 -0.2,0.6 -0.2,0.9c0.1,0.3 0.3,0.5 0.6,0.7l10,4c0.1,0 0.2,0.1 0.4,0.1c0.3,0 0.6,-0.1 0.8,-0.4l2.2,-2.9l2.2,2.9c0.2,0.3 0.5,0.4 0.8,0.4c0.1,0 0.3,0 0.4,-0.1l10,-4c0.3,-0.1 0.5,-0.4 0.6,-0.7c0.1,-0.3 0,-0.6 -0.2,-0.9l-2.5,-3.3zm-11.3,2.8l-7.3,-2.9l7.3,-2.9l7.3,2.9l-7.3,2.9z"/>
  <path fill="#dbb551" id="svg_3" d="m19,23c-0.9,0 -1.8,-0.4 -2.4,-1.2l-0.6,-0.8l-0.6,0.8c-0.8,1.1 -2.3,1.5 -3.5,1l-6.9,-2.8l0,4c0,0.4 0.2,0.8 0.6,0.9l10,4c0.1,0 0.2,0.1 0.4,0.1s0.3,0 0.4,-0.1l10,-4c0.4,-0.2 0.6,-0.5 0.6,-0.9l0,-4l-6.9,2.8c-0.3,0.1 -0.7,0.2 -1.1,0.2z"/>
 </g>
</svg>