<svg width="100" height="100" xmlns="http://www.w3.org/2000/svg">

 <g>
  <title>background</title>
  <rect fill="none" id="canvas_background" height="402" width="582" y="-1" x="-1"/>
 </g>
 <g>
  <title>Layer 1</title>
  <g id="svg_8">
   <path id="svg_2" fill="#EFC75E" d="m8.846912,28.925212l40.705138,-20.332895l40.705138,20.332895l-0.023065,2.687806l-40.682072,20.357318l-40.688856,-20.324755l-0.016282,-2.720369z"/>
   <path id="svg_3" fill="#E7BF55" d="m8.848268,28.925212l40.672575,20.350534l40.734987,-20.350534l0,40.703781l-40.851671,20.35189l-40.55589,-20.35189l0,-40.703781z"/>
   <path id="svg_4" fill="#DBB551" d="m49.552049,89.906259l0,-40.646795l-0.031206,0.016282l-40.672575,-20.350534l0,40.703781l40.55589,20.35189l0.14789,-0.074624z"/>
   <path id="svg_5" fill="#F1D999" d="m65.838989,41.124135l0,11.928921l3.633491,0.293067l2.316045,-2.75836l2.180366,0.343269l0,-13.869135l-8.129902,4.062237z"/>
   <path id="svg_6" fill="#F7E3AF" d="m25.104002,20.804808l41.395745,20.730436l7.465073,-4.423144l-40.703781,-20.383097l-8.157038,4.075805z"/>
   <path id="svg_7" fill="#F2F2F2" d="m41.401796,67.080936l-13.546218,-6.797531c-0.747593,-0.375832 -1.354079,0.081408 -1.354079,1.018951l0,8.494879c0,0.938901 0.606486,2.00534 1.354079,2.379814l13.546218,6.797531c0.747593,0.374475 1.354079,-0.082764 1.354079,-1.020308l0,-8.494879c0,-0.937544 -0.607843,-2.003983 -1.354079,-2.378458zm-3.387911,6.796175l-8.127188,-4.079876c-0.373118,-0.187237 -0.67704,-0.7191 -0.67704,-1.18855s0.303922,-0.697391 0.67704,-0.510154l8.127188,4.078519c0.373118,0.188594 0.67704,0.720457 0.67704,1.189907s-0.302565,0.697391 -0.67704,0.510154zm1.354079,-2.719013l-9.481267,-4.758272c-0.373118,-0.188594 -0.67704,-0.720457 -0.67704,-1.189907s0.303922,-0.697391 0.67704,-0.510154l9.481267,4.759629c0.374475,0.187237 0.67704,0.720457 0.67704,1.18855c0,0.46945 -0.301208,0.698748 -0.67704,0.510154z"/>
  </g>
 </g>
</svg>