<?xml version="1.0" ?><svg enable-background="new 0 0 160 240" id="Layer_1" version="1.1" viewBox="0 0 160 240" xml:space="preserve" xmlns="http://www.w3.org/2000/svg" xmlns:xlink="http://www.w3.org/1999/xlink"><g><polygon fill="#FFCC00" points="60.5,30 60.5,70 100.5,90 140.5,70 140.5,30 100.5,10  "/><polygon opacity="0.11" points="100.5,90 60.5,70 60.5,30 100.5,50  "/><polygon opacity="0.3" points="85.4,17.6 75.6,22.4 115.6,42.4 115.6,61.9 125.4,57 125.4,37.6  "/><polygon opacity="0.29" points="100.5,90 140.5,70 140.5,30 100.5,50  "/></g><g><path d="M112.9,87.4c0,0,9.7-1.7,12.8-5.1c3.1-3.4,4.4-7.1,3.4-6.8c-1,0.3-3.3,2.3-6,3.4c-2.7,1.1-5.6,1.1-6,0.9   c-0.4-0.3,4.3-5,3.4-6c-0.9-1-4.1,2-5.1,2.6c-1,0.6-3.1,1.7-4.3,3.4c-1.4,2.1-2.1,3.4-3.4,4.3L112.9,87.4z" fill="#FBD7C7"/><path d="M41,230c17,6.5,80.4-32.9,69.2-40.5C96,179.9,17.5,221.1,41,230z" opacity="0.2"/><path d="M40.1,213.9c-0.6,2.9-1.5,10-0.2,13.2c1,2.4,6.2,3.3,8.9,2c2.6-1.3,5.2-2.7,7.6-3.4c5-1.4,8.3-3.9,8-6.5   c-0.4-3.9-9.4-2.1-10.3-2.1c-0.9,0-1.2-2.4-1.2-2.4L40.1,213.9z" fill="#2D3134"/><path d="M64.4,219.1c-0.1-0.5-0.3-0.9-0.6-1.2c0.1,2.5-3.1,5-8,6.4c-2.3,0.6-5,2.1-7.6,3.4c-2.4,1.2-7.1,0.5-8.6-1.5   c0.1,0.3,0.2,0.6,0.3,0.9c1,2.4,6.2,3.3,8.9,2c2.6-1.3,5.2-2.7,7.6-3.4C61.4,224.3,64.7,221.7,64.4,219.1z" opacity="0.4"/><path d="M84.6,193.9c-0.2,1.4-0.3,7.3,0.7,8.8c1.2,1.7,3.6,2.1,5.8,1.5c2.2-0.6,11.1-5.2,13.5-6.2   c2.4-1,4.2-3,4.3-4.3c0.2-2.9-2.9-5.5-6.6-4.6c-3.7,0.9-5.2,2.2-6.2,1.9c-1-0.3-1.2-1.2-1.2-1.2L84.6,193.9z" fill="#2D3134"/><path d="M107.5,190.4c0.3,0.6,0.5,1.3,0.4,2.1c-0.1,1.3-1.8,3.3-4.3,4.3s-11.3,5.6-13.5,6.2   c-1.8,0.5-3.8,0.3-5.1-0.8c0.1,0.2,0.2,0.4,0.3,0.5c1.2,1.7,3.6,2.1,5.8,1.5c2.2-0.6,11.1-5.2,13.5-6.2c2.4-1,4.2-3,4.3-4.3   C109,192.5,108.4,191.3,107.5,190.4z" opacity="0.4"/><path d="M53.9,93c0,0,9.5,1.5,16.6,1.5s19.7-2.3,19.7-2.3s4.8,18.5,5.4,25.5c1.4,15.6-1.4,34.5-1.2,38.8   s1,22.1,1.2,26.7c0.2,4.6,2.4,8.5,1.4,10.2c-1,1.7-9.3,8.1-14.2,5.8c-1.6-0.7-3.5-26.1-3.5-35.4c0-9.3,0.2-11.2-1.9-19.4   c-2.1-8.1-4.3-22.7-4.3-22.7s-5,22.9-8.1,32.8c-3.1,9.9-4.3,21.3-6,30.8c-1.7,9.5-4.2,28.3-4.5,31.2c-0.2,2-3.8,4.5-7.5,5.8   c-3.5,1.2-7.9,0.7-8.8-0.3c-0.9-1,1.7-22.6,1.9-26.1s2.7-20.9,4.3-29c1.5-8.1,0.9-29,3.5-45.8C50.4,106.5,53.9,93,53.9,93z" fill="#06547A"/><path d="M62.2,39c0,0,6,3,9.5,3.5c3.4,0.6,10.2,0.4,10.2,0.4s1-6.3,1.6-7.5c0.6-1.2,2.8-2.9,3.2-5.5   c0.4-2.7,1.8-13.6,0-15.8c-1.8-2.2-11.1-7.6-16.6-1.2s-2,17.1-2.4,19.7C67.4,35.3,62.2,39,62.2,39z" fill="#FBD7C7"/><path d="M67.4,34.3c0,0,6.2,2.3,9.9,1.6c3.6-0.7,5.9-4.3,5.9-4.3s0.1-4.9,1.2-6.7s1.6-0.8,1.6-0.8s2.1-3.9,1.6-6.7   s-3.3-9.6-13-7.1c-7.6,1.9-8.8,9.9-8.7,13.4C65.9,27.1,67.4,34.3,67.4,34.3z" fill="#762C07"/><path d="M48.3,44.5c-1.4,2.2-1.5,7.1-1.6,12.1c-0.1,5-2,20-1.6,22.6c0.4,2.6,11.7,5.2,11.7,5.2L48.3,44.5z" fill="#3399CC"/><path d="M89.1,49.7c1.2-1.2,6.5,0.4,7.7,5.2c1.2,4.8,4.4,29,4.4,29l6.9-1.2c0,0,4.2,0.3,4.8,2   c0.6,1.7,0.1,4.1-3.2,5.6c-3.3,1.5-9.5,6.3-12.5,5.6c-3-0.6-4.5-1.8-6.5-8.9c-1.9-7.1-4.8-23-4.8-23L89.1,49.7z" fill="#3399CC"/><path d="M62,38.8c0,0,4,1.2,8.5,2c4.4,0.8,11.7,2,11.7,2s5,3.1,6.5,4c2,1.2,4.8,2.8,4,3.1c-1.1,0.4-4,5.8-4.8,13   s0.8,14.5,0.8,14.5s2.4,12.6,3.3,16.3c0.9,3.8,4.2,13.5,3.1,15.7c-0.7,1.4-17.2,2.9-25,2.6c-7.8-0.3-21.1-3-21.4-4.2   c-0.3-1.2,3.6-18.5,2.9-22.7c-0.7-4.2-5.3-34.9-4.1-39.2C49.3,39.8,62,38.8,62,38.8z" fill="#99CC33"/></g></svg>