<svg width="512" height="512" xmlns="http://www.w3.org/2000/svg">

 <g>
  <title>background</title>
  <rect fill="none" id="canvas_background" height="402" width="582" y="-1" x="-1"/>
 </g>
 <g>
  <title>Layer 1</title>
  <path fill="#0ea50e" id="svg_1" d="m480,128c0,8.188 -3.125,16.38 -9.375,22.62l-256,256c-6.225,6.28 -14.425,9.38 -22.625,9.38s-16.38,-3.125 -22.62,-9.375l-128,-128c-6.25,-6.225 -9.38,-14.425 -9.38,-22.625c0,-18.28 14.95,-32 32,-32c8.188,0 16.38,3.125 22.62,9.375l105.38,105.425l233.4,-233.4c6.2,-6.27 14.4,-9.4 22.6,-9.4c17.1,0 32,13.7 32,32z"/>
 </g>
</svg>